<mxfile host="app.diagrams.net" agent="Mozilla/5.0 (Macintosh; Intel Mac OS X 10_15_7) AppleWebKit/537.36 (KHTML, like Gecko) Chrome/131.0.0.0 Safari/537.36" version="26.0.5">
  <diagram name="第 1 页" id="Sf_3Y8WMDxAEPWqdiOqH">
    <mxGraphModel dx="1830" dy="775" grid="1" gridSize="10" guides="1" tooltips="1" connect="1" arrows="1" fold="1" page="1" pageScale="1" pageWidth="827" pageHeight="1169" math="0" shadow="0">
      <root>
        <mxCell id="0" />
        <mxCell id="1" parent="0" />
        <mxCell id="yAxx1janBpm9MGnzS22k-2" value="" style="rounded=0;whiteSpace=wrap;html=1;" vertex="1" parent="1">
          <mxGeometry x="200" y="160" width="170" height="210" as="geometry" />
        </mxCell>
        <mxCell id="yAxx1janBpm9MGnzS22k-3" value="" style="rounded=0;whiteSpace=wrap;html=1;" vertex="1" parent="1">
          <mxGeometry x="370" y="160" width="200" height="210" as="geometry" />
        </mxCell>
        <mxCell id="yAxx1janBpm9MGnzS22k-4" value="1738" style="text;html=1;align=center;verticalAlign=middle;resizable=0;points=[];autosize=1;strokeColor=none;fillColor=none;" vertex="1" parent="1">
          <mxGeometry x="260" y="130" width="50" height="30" as="geometry" />
        </mxCell>
        <mxCell id="yAxx1janBpm9MGnzS22k-5" value="2159" style="text;html=1;align=center;verticalAlign=middle;resizable=0;points=[];autosize=1;strokeColor=none;fillColor=none;" vertex="1" parent="1">
          <mxGeometry x="160" y="250" width="50" height="30" as="geometry" />
        </mxCell>
        <mxCell id="yAxx1janBpm9MGnzS22k-6" value="2022" style="text;html=1;align=center;verticalAlign=middle;resizable=0;points=[];autosize=1;strokeColor=none;fillColor=none;" vertex="1" parent="1">
          <mxGeometry x="445" y="130" width="50" height="30" as="geometry" />
        </mxCell>
        <mxCell id="yAxx1janBpm9MGnzS22k-7" value="" style="rounded=0;whiteSpace=wrap;html=1;fillColor=#f5f5f5;fontColor=#333333;strokeColor=#666666;shadow=0;" vertex="1" parent="1">
          <mxGeometry x="470" y="480" width="100" height="210" as="geometry" />
        </mxCell>
        <mxCell id="yAxx1janBpm9MGnzS22k-8" value="1738" style="text;html=1;align=center;verticalAlign=middle;resizable=0;points=[];autosize=1;strokeColor=none;fillColor=none;" vertex="1" parent="1">
          <mxGeometry x="260" y="450" width="50" height="30" as="geometry" />
        </mxCell>
        <mxCell id="yAxx1janBpm9MGnzS22k-9" value="2159" style="text;html=1;align=center;verticalAlign=middle;resizable=0;points=[];autosize=1;strokeColor=none;fillColor=none;" vertex="1" parent="1">
          <mxGeometry x="160" y="570" width="50" height="30" as="geometry" />
        </mxCell>
        <mxCell id="yAxx1janBpm9MGnzS22k-10" value="1000" style="text;html=1;align=center;verticalAlign=middle;resizable=0;points=[];autosize=1;strokeColor=none;fillColor=none;" vertex="1" parent="1">
          <mxGeometry x="389" y="450" width="50" height="30" as="geometry" />
        </mxCell>
        <mxCell id="yAxx1janBpm9MGnzS22k-11" value="1000" style="text;html=1;align=center;verticalAlign=middle;resizable=0;points=[];autosize=1;strokeColor=none;fillColor=none;" vertex="1" parent="1">
          <mxGeometry x="490" y="450" width="50" height="30" as="geometry" />
        </mxCell>
        <mxCell id="yAxx1janBpm9MGnzS22k-12" value="30" style="rounded=0;whiteSpace=wrap;html=1;fillColor=#f8cecc;strokeColor=#b85450;" vertex="1" parent="1">
          <mxGeometry x="370" y="480" width="30" height="30" as="geometry" />
        </mxCell>
        <mxCell id="yAxx1janBpm9MGnzS22k-13" value="" style="rounded=0;whiteSpace=wrap;html=1;fillColor=#f5f5f5;fontColor=#333333;strokeColor=#666666;shadow=0;" vertex="1" parent="1">
          <mxGeometry x="460" y="480" width="10" height="210" as="geometry" />
        </mxCell>
        <mxCell id="yAxx1janBpm9MGnzS22k-14" value="30" style="rounded=0;whiteSpace=wrap;html=1;fillColor=#f8cecc;strokeColor=#b85450;" vertex="1" parent="1">
          <mxGeometry x="370" y="510" width="30" height="30" as="geometry" />
        </mxCell>
        <mxCell id="yAxx1janBpm9MGnzS22k-15" value="30" style="rounded=0;whiteSpace=wrap;html=1;" vertex="1" parent="1">
          <mxGeometry x="370" y="540" width="30" height="30" as="geometry" />
        </mxCell>
        <mxCell id="yAxx1janBpm9MGnzS22k-16" value="30" style="rounded=0;whiteSpace=wrap;html=1;" vertex="1" parent="1">
          <mxGeometry x="370" y="570" width="30" height="30" as="geometry" />
        </mxCell>
        <mxCell id="yAxx1janBpm9MGnzS22k-17" value="30" style="rounded=0;whiteSpace=wrap;html=1;" vertex="1" parent="1">
          <mxGeometry x="370" y="600" width="30" height="30" as="geometry" />
        </mxCell>
        <mxCell id="yAxx1janBpm9MGnzS22k-18" value="30" style="rounded=0;whiteSpace=wrap;html=1;" vertex="1" parent="1">
          <mxGeometry x="370" y="630" width="30" height="30" as="geometry" />
        </mxCell>
        <mxCell id="yAxx1janBpm9MGnzS22k-19" value="30" style="rounded=0;whiteSpace=wrap;html=1;" vertex="1" parent="1">
          <mxGeometry x="370" y="660" width="30" height="30" as="geometry" />
        </mxCell>
        <mxCell id="yAxx1janBpm9MGnzS22k-20" value="30" style="rounded=0;whiteSpace=wrap;html=1;fillColor=#f8cecc;strokeColor=#b85450;" vertex="1" parent="1">
          <mxGeometry x="400" y="480" width="30" height="30" as="geometry" />
        </mxCell>
        <mxCell id="yAxx1janBpm9MGnzS22k-21" value="30" style="rounded=0;whiteSpace=wrap;html=1;fillColor=#f8cecc;strokeColor=#b85450;" vertex="1" parent="1">
          <mxGeometry x="400" y="510" width="30" height="30" as="geometry" />
        </mxCell>
        <mxCell id="yAxx1janBpm9MGnzS22k-22" value="30" style="rounded=0;whiteSpace=wrap;html=1;" vertex="1" parent="1">
          <mxGeometry x="400" y="540" width="30" height="30" as="geometry" />
        </mxCell>
        <mxCell id="yAxx1janBpm9MGnzS22k-23" value="30" style="rounded=0;whiteSpace=wrap;html=1;" vertex="1" parent="1">
          <mxGeometry x="400" y="570" width="30" height="30" as="geometry" />
        </mxCell>
        <mxCell id="yAxx1janBpm9MGnzS22k-24" value="30" style="rounded=0;whiteSpace=wrap;html=1;" vertex="1" parent="1">
          <mxGeometry x="400" y="600" width="30" height="30" as="geometry" />
        </mxCell>
        <mxCell id="yAxx1janBpm9MGnzS22k-25" value="30" style="rounded=0;whiteSpace=wrap;html=1;" vertex="1" parent="1">
          <mxGeometry x="400" y="630" width="30" height="30" as="geometry" />
        </mxCell>
        <mxCell id="yAxx1janBpm9MGnzS22k-26" value="30" style="rounded=0;whiteSpace=wrap;html=1;" vertex="1" parent="1">
          <mxGeometry x="400" y="660" width="30" height="30" as="geometry" />
        </mxCell>
        <mxCell id="yAxx1janBpm9MGnzS22k-27" value="30" style="rounded=0;whiteSpace=wrap;html=1;fillColor=#f8cecc;strokeColor=#b85450;" vertex="1" parent="1">
          <mxGeometry x="430" y="480" width="30" height="30" as="geometry" />
        </mxCell>
        <mxCell id="yAxx1janBpm9MGnzS22k-28" value="30" style="rounded=0;whiteSpace=wrap;html=1;fillColor=#f8cecc;strokeColor=#b85450;" vertex="1" parent="1">
          <mxGeometry x="430" y="510" width="30" height="30" as="geometry" />
        </mxCell>
        <mxCell id="yAxx1janBpm9MGnzS22k-29" value="30" style="rounded=0;whiteSpace=wrap;html=1;" vertex="1" parent="1">
          <mxGeometry x="430" y="540" width="30" height="30" as="geometry" />
        </mxCell>
        <mxCell id="yAxx1janBpm9MGnzS22k-30" value="30" style="rounded=0;whiteSpace=wrap;html=1;" vertex="1" parent="1">
          <mxGeometry x="430" y="570" width="30" height="30" as="geometry" />
        </mxCell>
        <mxCell id="yAxx1janBpm9MGnzS22k-31" value="30" style="rounded=0;whiteSpace=wrap;html=1;" vertex="1" parent="1">
          <mxGeometry x="430" y="600" width="30" height="30" as="geometry" />
        </mxCell>
        <mxCell id="yAxx1janBpm9MGnzS22k-32" value="30" style="rounded=0;whiteSpace=wrap;html=1;" vertex="1" parent="1">
          <mxGeometry x="430" y="630" width="30" height="30" as="geometry" />
        </mxCell>
        <mxCell id="yAxx1janBpm9MGnzS22k-33" value="30" style="rounded=0;whiteSpace=wrap;html=1;" vertex="1" parent="1">
          <mxGeometry x="430" y="660" width="30" height="30" as="geometry" />
        </mxCell>
        <mxCell id="yAxx1janBpm9MGnzS22k-34" value="30" style="rounded=0;whiteSpace=wrap;html=1;fillColor=#d5e8d4;strokeColor=#82b366;" vertex="1" parent="1">
          <mxGeometry x="260" y="480" width="30" height="30" as="geometry" />
        </mxCell>
        <mxCell id="yAxx1janBpm9MGnzS22k-35" value="30" style="rounded=0;whiteSpace=wrap;html=1;fillColor=#d5e8d4;strokeColor=#82b366;" vertex="1" parent="1">
          <mxGeometry x="260" y="510" width="30" height="30" as="geometry" />
        </mxCell>
        <mxCell id="yAxx1janBpm9MGnzS22k-36" value="30" style="rounded=0;whiteSpace=wrap;html=1;fillColor=#d5e8d4;strokeColor=#82b366;" vertex="1" parent="1">
          <mxGeometry x="260" y="540" width="30" height="30" as="geometry" />
        </mxCell>
        <mxCell id="yAxx1janBpm9MGnzS22k-37" value="30" style="rounded=0;whiteSpace=wrap;html=1;fillColor=#dae8fc;strokeColor=#6c8ebf;" vertex="1" parent="1">
          <mxGeometry x="260" y="570" width="30" height="30" as="geometry" />
        </mxCell>
        <mxCell id="yAxx1janBpm9MGnzS22k-38" value="30" style="rounded=0;whiteSpace=wrap;html=1;fillColor=#dae8fc;strokeColor=#6c8ebf;" vertex="1" parent="1">
          <mxGeometry x="260" y="600" width="30" height="30" as="geometry" />
        </mxCell>
        <mxCell id="yAxx1janBpm9MGnzS22k-39" value="30" style="rounded=0;whiteSpace=wrap;html=1;fillColor=#dae8fc;strokeColor=#6c8ebf;" vertex="1" parent="1">
          <mxGeometry x="260" y="630" width="30" height="30" as="geometry" />
        </mxCell>
        <mxCell id="yAxx1janBpm9MGnzS22k-40" value="30" style="rounded=0;whiteSpace=wrap;html=1;fillColor=#dae8fc;strokeColor=#6c8ebf;" vertex="1" parent="1">
          <mxGeometry x="260" y="660" width="30" height="30" as="geometry" />
        </mxCell>
        <mxCell id="yAxx1janBpm9MGnzS22k-41" value="30" style="rounded=0;whiteSpace=wrap;html=1;fillColor=#d5e8d4;strokeColor=#82b366;" vertex="1" parent="1">
          <mxGeometry x="290" y="480" width="30" height="30" as="geometry" />
        </mxCell>
        <mxCell id="yAxx1janBpm9MGnzS22k-42" value="30" style="rounded=0;whiteSpace=wrap;html=1;fillColor=#d5e8d4;strokeColor=#82b366;" vertex="1" parent="1">
          <mxGeometry x="290" y="510" width="30" height="30" as="geometry" />
        </mxCell>
        <mxCell id="yAxx1janBpm9MGnzS22k-43" value="30" style="rounded=0;whiteSpace=wrap;html=1;fillColor=#d5e8d4;strokeColor=#82b366;" vertex="1" parent="1">
          <mxGeometry x="290" y="540" width="30" height="30" as="geometry" />
        </mxCell>
        <mxCell id="yAxx1janBpm9MGnzS22k-44" value="30" style="rounded=0;whiteSpace=wrap;html=1;fillColor=#dae8fc;strokeColor=#6c8ebf;shadow=0;glass=0;" vertex="1" parent="1">
          <mxGeometry x="290" y="570" width="30" height="30" as="geometry" />
        </mxCell>
        <mxCell id="yAxx1janBpm9MGnzS22k-45" value="30" style="rounded=0;whiteSpace=wrap;html=1;fillColor=#dae8fc;strokeColor=#6c8ebf;" vertex="1" parent="1">
          <mxGeometry x="290" y="600" width="30" height="30" as="geometry" />
        </mxCell>
        <mxCell id="yAxx1janBpm9MGnzS22k-46" value="30" style="rounded=0;whiteSpace=wrap;html=1;fillColor=#dae8fc;strokeColor=#6c8ebf;" vertex="1" parent="1">
          <mxGeometry x="290" y="630" width="30" height="30" as="geometry" />
        </mxCell>
        <mxCell id="yAxx1janBpm9MGnzS22k-47" value="30" style="rounded=0;whiteSpace=wrap;html=1;fillColor=#dae8fc;strokeColor=#6c8ebf;" vertex="1" parent="1">
          <mxGeometry x="290" y="660" width="30" height="30" as="geometry" />
        </mxCell>
        <mxCell id="yAxx1janBpm9MGnzS22k-48" value="30" style="rounded=0;whiteSpace=wrap;html=1;" vertex="1" parent="1">
          <mxGeometry x="320" y="480" width="30" height="30" as="geometry" />
        </mxCell>
        <mxCell id="yAxx1janBpm9MGnzS22k-49" value="30" style="rounded=0;whiteSpace=wrap;html=1;" vertex="1" parent="1">
          <mxGeometry x="320" y="510" width="30" height="30" as="geometry" />
        </mxCell>
        <mxCell id="yAxx1janBpm9MGnzS22k-50" value="30" style="rounded=0;whiteSpace=wrap;html=1;" vertex="1" parent="1">
          <mxGeometry x="320" y="540" width="30" height="30" as="geometry" />
        </mxCell>
        <mxCell id="yAxx1janBpm9MGnzS22k-51" value="30" style="rounded=0;whiteSpace=wrap;html=1;fillColor=#dae8fc;strokeColor=#6c8ebf;" vertex="1" parent="1">
          <mxGeometry x="320" y="570" width="30" height="30" as="geometry" />
        </mxCell>
        <mxCell id="yAxx1janBpm9MGnzS22k-52" value="30" style="rounded=0;whiteSpace=wrap;html=1;fillColor=#dae8fc;strokeColor=#6c8ebf;" vertex="1" parent="1">
          <mxGeometry x="320" y="600" width="30" height="30" as="geometry" />
        </mxCell>
        <mxCell id="yAxx1janBpm9MGnzS22k-53" value="30" style="rounded=0;whiteSpace=wrap;html=1;fillColor=#dae8fc;strokeColor=#6c8ebf;" vertex="1" parent="1">
          <mxGeometry x="320" y="630" width="30" height="30" as="geometry" />
        </mxCell>
        <mxCell id="yAxx1janBpm9MGnzS22k-54" value="30" style="rounded=0;whiteSpace=wrap;html=1;fillColor=#dae8fc;strokeColor=#6c8ebf;" vertex="1" parent="1">
          <mxGeometry x="320" y="660" width="30" height="30" as="geometry" />
        </mxCell>
        <mxCell id="yAxx1janBpm9MGnzS22k-55" value="30" style="rounded=0;whiteSpace=wrap;html=1;fillColor=#d5e8d4;strokeColor=#82b366;" vertex="1" parent="1">
          <mxGeometry x="200" y="480" width="30" height="30" as="geometry" />
        </mxCell>
        <mxCell id="yAxx1janBpm9MGnzS22k-56" value="30" style="rounded=0;whiteSpace=wrap;html=1;fillColor=#d5e8d4;strokeColor=#82b366;" vertex="1" parent="1">
          <mxGeometry x="200" y="510" width="30" height="30" as="geometry" />
        </mxCell>
        <mxCell id="yAxx1janBpm9MGnzS22k-57" value="30" style="rounded=0;whiteSpace=wrap;html=1;fillColor=#d5e8d4;strokeColor=#82b366;" vertex="1" parent="1">
          <mxGeometry x="200" y="540" width="30" height="30" as="geometry" />
        </mxCell>
        <mxCell id="yAxx1janBpm9MGnzS22k-58" value="30" style="rounded=0;whiteSpace=wrap;html=1;fillColor=#dae8fc;strokeColor=#6c8ebf;" vertex="1" parent="1">
          <mxGeometry x="200" y="570" width="30" height="30" as="geometry" />
        </mxCell>
        <mxCell id="yAxx1janBpm9MGnzS22k-59" value="30" style="rounded=0;whiteSpace=wrap;html=1;fillColor=#dae8fc;strokeColor=#6c8ebf;" vertex="1" parent="1">
          <mxGeometry x="200" y="600" width="30" height="30" as="geometry" />
        </mxCell>
        <mxCell id="yAxx1janBpm9MGnzS22k-60" value="30" style="rounded=0;whiteSpace=wrap;html=1;fillColor=#dae8fc;strokeColor=#6c8ebf;" vertex="1" parent="1">
          <mxGeometry x="200" y="630" width="30" height="30" as="geometry" />
        </mxCell>
        <mxCell id="yAxx1janBpm9MGnzS22k-61" value="30" style="rounded=0;whiteSpace=wrap;html=1;fillColor=#dae8fc;strokeColor=#6c8ebf;" vertex="1" parent="1">
          <mxGeometry x="200" y="660" width="30" height="30" as="geometry" />
        </mxCell>
        <mxCell id="yAxx1janBpm9MGnzS22k-62" value="30" style="rounded=0;whiteSpace=wrap;html=1;fillColor=#d5e8d4;strokeColor=#82b366;" vertex="1" parent="1">
          <mxGeometry x="230" y="480" width="30" height="30" as="geometry" />
        </mxCell>
        <mxCell id="yAxx1janBpm9MGnzS22k-63" value="30" style="rounded=0;whiteSpace=wrap;html=1;fillColor=#d5e8d4;strokeColor=#82b366;" vertex="1" parent="1">
          <mxGeometry x="230" y="510" width="30" height="30" as="geometry" />
        </mxCell>
        <mxCell id="yAxx1janBpm9MGnzS22k-64" value="30" style="rounded=0;whiteSpace=wrap;html=1;fillColor=#d5e8d4;strokeColor=#82b366;" vertex="1" parent="1">
          <mxGeometry x="230" y="540" width="30" height="30" as="geometry" />
        </mxCell>
        <mxCell id="yAxx1janBpm9MGnzS22k-65" value="30" style="rounded=0;whiteSpace=wrap;html=1;fillColor=#dae8fc;strokeColor=#6c8ebf;" vertex="1" parent="1">
          <mxGeometry x="230" y="570" width="30" height="30" as="geometry" />
        </mxCell>
        <mxCell id="yAxx1janBpm9MGnzS22k-66" value="30" style="rounded=0;whiteSpace=wrap;html=1;fillColor=#dae8fc;strokeColor=#6c8ebf;" vertex="1" parent="1">
          <mxGeometry x="230" y="600" width="30" height="30" as="geometry" />
        </mxCell>
        <mxCell id="yAxx1janBpm9MGnzS22k-67" value="30" style="rounded=0;whiteSpace=wrap;html=1;fillColor=#dae8fc;strokeColor=#6c8ebf;" vertex="1" parent="1">
          <mxGeometry x="230" y="630" width="30" height="30" as="geometry" />
        </mxCell>
        <mxCell id="yAxx1janBpm9MGnzS22k-68" value="30" style="rounded=0;whiteSpace=wrap;html=1;fillColor=#dae8fc;strokeColor=#6c8ebf;" vertex="1" parent="1">
          <mxGeometry x="230" y="660" width="30" height="30" as="geometry" />
        </mxCell>
        <mxCell id="yAxx1janBpm9MGnzS22k-69" value="23" style="rounded=0;whiteSpace=wrap;html=1;" vertex="1" parent="1">
          <mxGeometry x="350" y="510" width="20" height="30" as="geometry" />
        </mxCell>
        <mxCell id="yAxx1janBpm9MGnzS22k-70" value="23" style="rounded=0;whiteSpace=wrap;html=1;" vertex="1" parent="1">
          <mxGeometry x="350" y="480" width="20" height="30" as="geometry" />
        </mxCell>
        <mxCell id="yAxx1janBpm9MGnzS22k-71" value="23" style="rounded=0;whiteSpace=wrap;html=1;fillColor=#e51400;fontColor=#ffffff;strokeColor=#B20000;glass=0;sketch=1;curveFitting=1;jiggle=2;" vertex="1" parent="1">
          <mxGeometry x="350" y="540" width="20" height="30" as="geometry" />
        </mxCell>
        <mxCell id="yAxx1janBpm9MGnzS22k-72" value="23" style="rounded=0;whiteSpace=wrap;html=1;" vertex="1" parent="1">
          <mxGeometry x="350" y="570" width="20" height="30" as="geometry" />
        </mxCell>
        <mxCell id="yAxx1janBpm9MGnzS22k-73" value="23" style="rounded=0;whiteSpace=wrap;html=1;" vertex="1" parent="1">
          <mxGeometry x="350" y="600" width="20" height="30" as="geometry" />
        </mxCell>
        <mxCell id="yAxx1janBpm9MGnzS22k-74" value="23" style="rounded=0;whiteSpace=wrap;html=1;" vertex="1" parent="1">
          <mxGeometry x="350" y="630" width="20" height="30" as="geometry" />
        </mxCell>
        <mxCell id="yAxx1janBpm9MGnzS22k-75" value="23" style="rounded=0;whiteSpace=wrap;html=1;" vertex="1" parent="1">
          <mxGeometry x="350" y="660" width="20" height="30" as="geometry" />
        </mxCell>
        <mxCell id="yAxx1janBpm9MGnzS22k-76" value="" style="endArrow=none;html=1;rounded=0;" edge="1" parent="1">
          <mxGeometry width="50" height="50" relative="1" as="geometry">
            <mxPoint x="370" y="2080" as="sourcePoint" />
            <mxPoint x="370" y="80" as="targetPoint" />
          </mxGeometry>
        </mxCell>
        <mxCell id="yAxx1janBpm9MGnzS22k-77" value="door：75" style="text;html=1;align=center;verticalAlign=middle;resizable=0;points=[];autosize=1;strokeColor=none;fillColor=none;" vertex="1" parent="1">
          <mxGeometry x="590" y="554" width="70" height="30" as="geometry" />
        </mxCell>
        <mxCell id="yAxx1janBpm9MGnzS22k-78" value="" style="rounded=0;whiteSpace=wrap;html=1;fillColor=#f5f5f5;fontColor=#333333;strokeColor=#666666;shadow=0;" vertex="1" parent="1">
          <mxGeometry x="470" y="790" width="100" height="210" as="geometry" />
        </mxCell>
        <mxCell id="yAxx1janBpm9MGnzS22k-79" value="1738" style="text;html=1;align=center;verticalAlign=middle;resizable=0;points=[];autosize=1;strokeColor=none;fillColor=none;" vertex="1" parent="1">
          <mxGeometry x="260" y="760" width="50" height="30" as="geometry" />
        </mxCell>
        <mxCell id="yAxx1janBpm9MGnzS22k-80" value="2159" style="text;html=1;align=center;verticalAlign=middle;resizable=0;points=[];autosize=1;strokeColor=none;fillColor=none;" vertex="1" parent="1">
          <mxGeometry x="160" y="880" width="50" height="30" as="geometry" />
        </mxCell>
        <mxCell id="yAxx1janBpm9MGnzS22k-81" value="1000" style="text;html=1;align=center;verticalAlign=middle;resizable=0;points=[];autosize=1;strokeColor=none;fillColor=none;" vertex="1" parent="1">
          <mxGeometry x="389" y="760" width="50" height="30" as="geometry" />
        </mxCell>
        <mxCell id="yAxx1janBpm9MGnzS22k-82" value="1000" style="text;html=1;align=center;verticalAlign=middle;resizable=0;points=[];autosize=1;strokeColor=none;fillColor=none;" vertex="1" parent="1">
          <mxGeometry x="490" y="760" width="50" height="30" as="geometry" />
        </mxCell>
        <mxCell id="yAxx1janBpm9MGnzS22k-83" value="30" style="rounded=0;whiteSpace=wrap;html=1;" vertex="1" parent="1">
          <mxGeometry x="370" y="790" width="30" height="30" as="geometry" />
        </mxCell>
        <mxCell id="yAxx1janBpm9MGnzS22k-84" value="" style="rounded=0;whiteSpace=wrap;html=1;fillColor=#f5f5f5;fontColor=#333333;strokeColor=#666666;shadow=0;" vertex="1" parent="1">
          <mxGeometry x="460" y="790" width="10" height="210" as="geometry" />
        </mxCell>
        <mxCell id="yAxx1janBpm9MGnzS22k-85" value="30" style="rounded=0;whiteSpace=wrap;html=1;" vertex="1" parent="1">
          <mxGeometry x="370" y="820" width="30" height="30" as="geometry" />
        </mxCell>
        <mxCell id="yAxx1janBpm9MGnzS22k-86" value="30" style="rounded=0;whiteSpace=wrap;html=1;" vertex="1" parent="1">
          <mxGeometry x="370" y="850" width="30" height="30" as="geometry" />
        </mxCell>
        <mxCell id="yAxx1janBpm9MGnzS22k-87" value="30" style="rounded=0;whiteSpace=wrap;html=1;fillColor=#d5e8d4;strokeColor=#82b366;" vertex="1" parent="1">
          <mxGeometry x="370" y="880" width="30" height="30" as="geometry" />
        </mxCell>
        <mxCell id="yAxx1janBpm9MGnzS22k-88" value="30" style="rounded=0;whiteSpace=wrap;html=1;fillColor=#d5e8d4;strokeColor=#82b366;" vertex="1" parent="1">
          <mxGeometry x="370" y="910" width="30" height="30" as="geometry" />
        </mxCell>
        <mxCell id="yAxx1janBpm9MGnzS22k-89" value="30" style="rounded=0;whiteSpace=wrap;html=1;fillColor=#e51400;strokeColor=#B20000;fontColor=#ffffff;" vertex="1" parent="1">
          <mxGeometry x="370" y="940" width="30" height="30" as="geometry" />
        </mxCell>
        <mxCell id="yAxx1janBpm9MGnzS22k-90" value="30" style="rounded=0;whiteSpace=wrap;html=1;fillColor=#e51400;strokeColor=#B20000;fontColor=#ffffff;" vertex="1" parent="1">
          <mxGeometry x="370" y="970" width="30" height="30" as="geometry" />
        </mxCell>
        <mxCell id="yAxx1janBpm9MGnzS22k-91" value="30" style="rounded=0;whiteSpace=wrap;html=1;" vertex="1" parent="1">
          <mxGeometry x="400" y="790" width="30" height="30" as="geometry" />
        </mxCell>
        <mxCell id="yAxx1janBpm9MGnzS22k-92" value="30" style="rounded=0;whiteSpace=wrap;html=1;" vertex="1" parent="1">
          <mxGeometry x="400" y="820" width="30" height="30" as="geometry" />
        </mxCell>
        <mxCell id="yAxx1janBpm9MGnzS22k-93" value="30" style="rounded=0;whiteSpace=wrap;html=1;" vertex="1" parent="1">
          <mxGeometry x="400" y="850" width="30" height="30" as="geometry" />
        </mxCell>
        <mxCell id="yAxx1janBpm9MGnzS22k-94" value="30" style="rounded=0;whiteSpace=wrap;html=1;" vertex="1" parent="1">
          <mxGeometry x="400" y="880" width="30" height="30" as="geometry" />
        </mxCell>
        <mxCell id="yAxx1janBpm9MGnzS22k-95" value="30" style="rounded=0;whiteSpace=wrap;html=1;fillColor=#f8cecc;strokeColor=#b85450;" vertex="1" parent="1">
          <mxGeometry x="400" y="910" width="30" height="30" as="geometry" />
        </mxCell>
        <mxCell id="yAxx1janBpm9MGnzS22k-96" value="30" style="rounded=0;whiteSpace=wrap;html=1;fillColor=#f8cecc;strokeColor=#b85450;" vertex="1" parent="1">
          <mxGeometry x="400" y="940" width="30" height="30" as="geometry" />
        </mxCell>
        <mxCell id="yAxx1janBpm9MGnzS22k-97" value="30" style="rounded=0;whiteSpace=wrap;html=1;fillColor=#f8cecc;strokeColor=#b85450;" vertex="1" parent="1">
          <mxGeometry x="400" y="970" width="30" height="30" as="geometry" />
        </mxCell>
        <mxCell id="yAxx1janBpm9MGnzS22k-98" value="30" style="rounded=0;whiteSpace=wrap;html=1;" vertex="1" parent="1">
          <mxGeometry x="430" y="790" width="30" height="30" as="geometry" />
        </mxCell>
        <mxCell id="yAxx1janBpm9MGnzS22k-99" value="30" style="rounded=0;whiteSpace=wrap;html=1;" vertex="1" parent="1">
          <mxGeometry x="430" y="820" width="30" height="30" as="geometry" />
        </mxCell>
        <mxCell id="yAxx1janBpm9MGnzS22k-100" value="30" style="rounded=0;whiteSpace=wrap;html=1;" vertex="1" parent="1">
          <mxGeometry x="430" y="850" width="30" height="30" as="geometry" />
        </mxCell>
        <mxCell id="yAxx1janBpm9MGnzS22k-101" value="30" style="rounded=0;whiteSpace=wrap;html=1;" vertex="1" parent="1">
          <mxGeometry x="430" y="880" width="30" height="30" as="geometry" />
        </mxCell>
        <mxCell id="yAxx1janBpm9MGnzS22k-102" value="30" style="rounded=0;whiteSpace=wrap;html=1;fillColor=#f8cecc;strokeColor=#b85450;" vertex="1" parent="1">
          <mxGeometry x="430" y="910" width="30" height="30" as="geometry" />
        </mxCell>
        <mxCell id="yAxx1janBpm9MGnzS22k-103" value="30" style="rounded=0;whiteSpace=wrap;html=1;fillColor=#f8cecc;strokeColor=#b85450;" vertex="1" parent="1">
          <mxGeometry x="430" y="940" width="30" height="30" as="geometry" />
        </mxCell>
        <mxCell id="yAxx1janBpm9MGnzS22k-104" value="30" style="rounded=0;whiteSpace=wrap;html=1;fillColor=#f8cecc;strokeColor=#b85450;" vertex="1" parent="1">
          <mxGeometry x="430" y="970" width="30" height="30" as="geometry" />
        </mxCell>
        <mxCell id="yAxx1janBpm9MGnzS22k-105" value="30" style="rounded=0;whiteSpace=wrap;html=1;" vertex="1" parent="1">
          <mxGeometry x="260" y="790" width="30" height="30" as="geometry" />
        </mxCell>
        <mxCell id="yAxx1janBpm9MGnzS22k-106" value="30" style="rounded=0;whiteSpace=wrap;html=1;" vertex="1" parent="1">
          <mxGeometry x="260" y="820" width="30" height="30" as="geometry" />
        </mxCell>
        <mxCell id="yAxx1janBpm9MGnzS22k-107" value="30" style="rounded=0;whiteSpace=wrap;html=1;fillColor=#dae8fc;strokeColor=#6c8ebf;" vertex="1" parent="1">
          <mxGeometry x="260" y="850" width="30" height="30" as="geometry" />
        </mxCell>
        <mxCell id="yAxx1janBpm9MGnzS22k-108" value="30" style="rounded=0;whiteSpace=wrap;html=1;fillColor=#dae8fc;strokeColor=#6c8ebf;" vertex="1" parent="1">
          <mxGeometry x="260" y="880" width="30" height="30" as="geometry" />
        </mxCell>
        <mxCell id="yAxx1janBpm9MGnzS22k-109" value="30" style="rounded=0;whiteSpace=wrap;html=1;fillColor=#dae8fc;strokeColor=#6c8ebf;" vertex="1" parent="1">
          <mxGeometry x="260" y="910" width="30" height="30" as="geometry" />
        </mxCell>
        <mxCell id="yAxx1janBpm9MGnzS22k-110" value="30" style="rounded=0;whiteSpace=wrap;html=1;fillColor=#dae8fc;strokeColor=#6c8ebf;" vertex="1" parent="1">
          <mxGeometry x="260" y="940" width="30" height="30" as="geometry" />
        </mxCell>
        <mxCell id="yAxx1janBpm9MGnzS22k-111" value="30" style="rounded=0;whiteSpace=wrap;html=1;fillColor=#dae8fc;strokeColor=#6c8ebf;" vertex="1" parent="1">
          <mxGeometry x="260" y="970" width="30" height="30" as="geometry" />
        </mxCell>
        <mxCell id="yAxx1janBpm9MGnzS22k-112" value="30" style="rounded=0;whiteSpace=wrap;html=1;" vertex="1" parent="1">
          <mxGeometry x="290" y="790" width="30" height="30" as="geometry" />
        </mxCell>
        <mxCell id="yAxx1janBpm9MGnzS22k-113" value="30" style="rounded=0;whiteSpace=wrap;html=1;" vertex="1" parent="1">
          <mxGeometry x="290" y="820" width="30" height="30" as="geometry" />
        </mxCell>
        <mxCell id="yAxx1janBpm9MGnzS22k-114" value="30" style="rounded=0;whiteSpace=wrap;html=1;fillColor=#dae8fc;strokeColor=#6c8ebf;" vertex="1" parent="1">
          <mxGeometry x="290" y="850" width="30" height="30" as="geometry" />
        </mxCell>
        <mxCell id="yAxx1janBpm9MGnzS22k-115" value="30" style="rounded=0;whiteSpace=wrap;html=1;shadow=0;glass=0;fillColor=#dae8fc;strokeColor=#6c8ebf;" vertex="1" parent="1">
          <mxGeometry x="290" y="880" width="30" height="30" as="geometry" />
        </mxCell>
        <mxCell id="yAxx1janBpm9MGnzS22k-116" value="30" style="rounded=0;whiteSpace=wrap;html=1;fillColor=#dae8fc;strokeColor=#6c8ebf;" vertex="1" parent="1">
          <mxGeometry x="290" y="910" width="30" height="30" as="geometry" />
        </mxCell>
        <mxCell id="yAxx1janBpm9MGnzS22k-117" value="30" style="rounded=0;whiteSpace=wrap;html=1;fillColor=#dae8fc;strokeColor=#6c8ebf;" vertex="1" parent="1">
          <mxGeometry x="290" y="940" width="30" height="30" as="geometry" />
        </mxCell>
        <mxCell id="yAxx1janBpm9MGnzS22k-118" value="30" style="rounded=0;whiteSpace=wrap;html=1;fillColor=#dae8fc;strokeColor=#6c8ebf;" vertex="1" parent="1">
          <mxGeometry x="290" y="970" width="30" height="30" as="geometry" />
        </mxCell>
        <mxCell id="yAxx1janBpm9MGnzS22k-119" value="30" style="rounded=0;whiteSpace=wrap;html=1;" vertex="1" parent="1">
          <mxGeometry x="320" y="790" width="30" height="30" as="geometry" />
        </mxCell>
        <mxCell id="yAxx1janBpm9MGnzS22k-120" value="30" style="rounded=0;whiteSpace=wrap;html=1;" vertex="1" parent="1">
          <mxGeometry x="320" y="820" width="30" height="30" as="geometry" />
        </mxCell>
        <mxCell id="yAxx1janBpm9MGnzS22k-121" value="30" style="rounded=0;whiteSpace=wrap;html=1;" vertex="1" parent="1">
          <mxGeometry x="320" y="850" width="30" height="30" as="geometry" />
        </mxCell>
        <mxCell id="yAxx1janBpm9MGnzS22k-122" value="30" style="rounded=0;whiteSpace=wrap;html=1;fillColor=#d5e8d4;strokeColor=#82b366;" vertex="1" parent="1">
          <mxGeometry x="320" y="880" width="30" height="30" as="geometry" />
        </mxCell>
        <mxCell id="yAxx1janBpm9MGnzS22k-123" value="30" style="rounded=0;whiteSpace=wrap;html=1;fillColor=#d5e8d4;strokeColor=#82b366;" vertex="1" parent="1">
          <mxGeometry x="320" y="910" width="30" height="30" as="geometry" />
        </mxCell>
        <mxCell id="yAxx1janBpm9MGnzS22k-124" value="30" style="rounded=0;whiteSpace=wrap;html=1;fillColor=#d5e8d4;strokeColor=#82b366;" vertex="1" parent="1">
          <mxGeometry x="320" y="940" width="30" height="30" as="geometry" />
        </mxCell>
        <mxCell id="yAxx1janBpm9MGnzS22k-125" value="30" style="rounded=0;whiteSpace=wrap;html=1;fillColor=#d5e8d4;strokeColor=#82b366;" vertex="1" parent="1">
          <mxGeometry x="320" y="970" width="30" height="30" as="geometry" />
        </mxCell>
        <mxCell id="yAxx1janBpm9MGnzS22k-126" value="30" style="rounded=0;whiteSpace=wrap;html=1;" vertex="1" parent="1">
          <mxGeometry x="200" y="790" width="30" height="30" as="geometry" />
        </mxCell>
        <mxCell id="yAxx1janBpm9MGnzS22k-127" value="30" style="rounded=0;whiteSpace=wrap;html=1;" vertex="1" parent="1">
          <mxGeometry x="200" y="820" width="30" height="30" as="geometry" />
        </mxCell>
        <mxCell id="yAxx1janBpm9MGnzS22k-128" value="30" style="rounded=0;whiteSpace=wrap;html=1;fillColor=#dae8fc;strokeColor=#6c8ebf;" vertex="1" parent="1">
          <mxGeometry x="200" y="850" width="30" height="30" as="geometry" />
        </mxCell>
        <mxCell id="yAxx1janBpm9MGnzS22k-129" value="30" style="rounded=0;whiteSpace=wrap;html=1;fillColor=#dae8fc;strokeColor=#6c8ebf;" vertex="1" parent="1">
          <mxGeometry x="200" y="880" width="30" height="30" as="geometry" />
        </mxCell>
        <mxCell id="yAxx1janBpm9MGnzS22k-130" value="30" style="rounded=0;whiteSpace=wrap;html=1;fillColor=#dae8fc;strokeColor=#6c8ebf;" vertex="1" parent="1">
          <mxGeometry x="200" y="910" width="30" height="30" as="geometry" />
        </mxCell>
        <mxCell id="yAxx1janBpm9MGnzS22k-131" value="30" style="rounded=0;whiteSpace=wrap;html=1;fillColor=#dae8fc;strokeColor=#6c8ebf;" vertex="1" parent="1">
          <mxGeometry x="200" y="940" width="30" height="30" as="geometry" />
        </mxCell>
        <mxCell id="yAxx1janBpm9MGnzS22k-132" value="30" style="rounded=0;whiteSpace=wrap;html=1;fillColor=#dae8fc;strokeColor=#6c8ebf;" vertex="1" parent="1">
          <mxGeometry x="200" y="970" width="30" height="30" as="geometry" />
        </mxCell>
        <mxCell id="yAxx1janBpm9MGnzS22k-133" value="30" style="rounded=0;whiteSpace=wrap;html=1;" vertex="1" parent="1">
          <mxGeometry x="230" y="790" width="30" height="30" as="geometry" />
        </mxCell>
        <mxCell id="yAxx1janBpm9MGnzS22k-134" value="30" style="rounded=0;whiteSpace=wrap;html=1;" vertex="1" parent="1">
          <mxGeometry x="230" y="820" width="30" height="30" as="geometry" />
        </mxCell>
        <mxCell id="yAxx1janBpm9MGnzS22k-135" value="30" style="rounded=0;whiteSpace=wrap;html=1;fillColor=#dae8fc;strokeColor=#6c8ebf;" vertex="1" parent="1">
          <mxGeometry x="230" y="850" width="30" height="30" as="geometry" />
        </mxCell>
        <mxCell id="yAxx1janBpm9MGnzS22k-136" value="30" style="rounded=0;whiteSpace=wrap;html=1;fillColor=#dae8fc;strokeColor=#6c8ebf;" vertex="1" parent="1">
          <mxGeometry x="230" y="880" width="30" height="30" as="geometry" />
        </mxCell>
        <mxCell id="yAxx1janBpm9MGnzS22k-137" value="30" style="rounded=0;whiteSpace=wrap;html=1;fillColor=#dae8fc;strokeColor=#6c8ebf;" vertex="1" parent="1">
          <mxGeometry x="230" y="910" width="30" height="30" as="geometry" />
        </mxCell>
        <mxCell id="yAxx1janBpm9MGnzS22k-138" value="30" style="rounded=0;whiteSpace=wrap;html=1;fillColor=#dae8fc;strokeColor=#6c8ebf;" vertex="1" parent="1">
          <mxGeometry x="230" y="940" width="30" height="30" as="geometry" />
        </mxCell>
        <mxCell id="yAxx1janBpm9MGnzS22k-139" value="30" style="rounded=0;whiteSpace=wrap;html=1;fillColor=#dae8fc;strokeColor=#6c8ebf;" vertex="1" parent="1">
          <mxGeometry x="230" y="970" width="30" height="30" as="geometry" />
        </mxCell>
        <mxCell id="yAxx1janBpm9MGnzS22k-140" value="23" style="rounded=0;whiteSpace=wrap;html=1;" vertex="1" parent="1">
          <mxGeometry x="350" y="820" width="20" height="30" as="geometry" />
        </mxCell>
        <mxCell id="yAxx1janBpm9MGnzS22k-141" value="23" style="rounded=0;whiteSpace=wrap;html=1;" vertex="1" parent="1">
          <mxGeometry x="350" y="790" width="20" height="30" as="geometry" />
        </mxCell>
        <mxCell id="yAxx1janBpm9MGnzS22k-142" value="23" style="rounded=0;whiteSpace=wrap;html=1;glass=0;" vertex="1" parent="1">
          <mxGeometry x="350" y="850" width="20" height="30" as="geometry" />
        </mxCell>
        <mxCell id="yAxx1janBpm9MGnzS22k-143" value="23" style="rounded=0;whiteSpace=wrap;html=1;fillColor=#d5e8d4;strokeColor=#82b366;" vertex="1" parent="1">
          <mxGeometry x="350" y="880" width="20" height="30" as="geometry" />
        </mxCell>
        <mxCell id="yAxx1janBpm9MGnzS22k-144" value="23" style="rounded=0;whiteSpace=wrap;html=1;fillColor=#d5e8d4;strokeColor=#82b366;" vertex="1" parent="1">
          <mxGeometry x="350" y="910" width="20" height="30" as="geometry" />
        </mxCell>
        <mxCell id="yAxx1janBpm9MGnzS22k-145" value="23" style="rounded=0;whiteSpace=wrap;html=1;fillColor=#e51400;strokeColor=#B20000;fontColor=#ffffff;" vertex="1" parent="1">
          <mxGeometry x="350" y="940" width="20" height="30" as="geometry" />
        </mxCell>
        <mxCell id="yAxx1janBpm9MGnzS22k-146" value="23" style="rounded=0;whiteSpace=wrap;html=1;fillColor=#e51400;strokeColor=#B20000;fontColor=#ffffff;" vertex="1" parent="1">
          <mxGeometry x="350" y="970" width="20" height="30" as="geometry" />
        </mxCell>
        <mxCell id="yAxx1janBpm9MGnzS22k-147" value="door：75" style="text;html=1;align=center;verticalAlign=middle;resizable=0;points=[];autosize=1;strokeColor=none;fillColor=none;" vertex="1" parent="1">
          <mxGeometry x="590" y="864" width="70" height="30" as="geometry" />
        </mxCell>
        <mxCell id="yAxx1janBpm9MGnzS22k-148" value="蓝色：MT&lt;div&gt;绿色：XY&lt;/div&gt;&lt;div&gt;红色：XS&lt;/div&gt;" style="text;html=1;align=center;verticalAlign=middle;resizable=0;points=[];autosize=1;strokeColor=none;fillColor=none;" vertex="1" parent="1">
          <mxGeometry x="585" y="890" width="80" height="60" as="geometry" />
        </mxCell>
        <mxCell id="yAxx1janBpm9MGnzS22k-149" value="V1" style="text;html=1;align=center;verticalAlign=middle;resizable=0;points=[];autosize=1;strokeColor=none;fillColor=none;" vertex="1" parent="1">
          <mxGeometry x="130" y="880" width="40" height="30" as="geometry" />
        </mxCell>
        <mxCell id="yAxx1janBpm9MGnzS22k-150" value="" style="rounded=0;whiteSpace=wrap;html=1;fillColor=#f5f5f5;fontColor=#333333;strokeColor=#666666;shadow=0;" vertex="1" parent="1">
          <mxGeometry x="470" y="1161" width="100" height="210" as="geometry" />
        </mxCell>
        <mxCell id="yAxx1janBpm9MGnzS22k-151" value="1738" style="text;html=1;align=center;verticalAlign=middle;resizable=0;points=[];autosize=1;strokeColor=none;fillColor=none;" vertex="1" parent="1">
          <mxGeometry x="260" y="1131" width="50" height="30" as="geometry" />
        </mxCell>
        <mxCell id="yAxx1janBpm9MGnzS22k-152" value="2159" style="text;html=1;align=center;verticalAlign=middle;resizable=0;points=[];autosize=1;strokeColor=none;fillColor=none;" vertex="1" parent="1">
          <mxGeometry x="160" y="1251" width="50" height="30" as="geometry" />
        </mxCell>
        <mxCell id="yAxx1janBpm9MGnzS22k-153" value="1000" style="text;html=1;align=center;verticalAlign=middle;resizable=0;points=[];autosize=1;strokeColor=none;fillColor=none;" vertex="1" parent="1">
          <mxGeometry x="389" y="1131" width="50" height="30" as="geometry" />
        </mxCell>
        <mxCell id="yAxx1janBpm9MGnzS22k-154" value="1000" style="text;html=1;align=center;verticalAlign=middle;resizable=0;points=[];autosize=1;strokeColor=none;fillColor=none;" vertex="1" parent="1">
          <mxGeometry x="490" y="1131" width="50" height="30" as="geometry" />
        </mxCell>
        <mxCell id="yAxx1janBpm9MGnzS22k-155" value="30" style="rounded=0;whiteSpace=wrap;html=1;fillColor=#fff2cc;strokeColor=#d6b656;" vertex="1" parent="1">
          <mxGeometry x="370" y="1161" width="30" height="30" as="geometry" />
        </mxCell>
        <mxCell id="yAxx1janBpm9MGnzS22k-156" value="" style="rounded=0;whiteSpace=wrap;html=1;fillColor=#f5f5f5;fontColor=#333333;strokeColor=#666666;shadow=0;" vertex="1" parent="1">
          <mxGeometry x="460" y="1161" width="10" height="210" as="geometry" />
        </mxCell>
        <mxCell id="yAxx1janBpm9MGnzS22k-157" value="30" style="rounded=0;whiteSpace=wrap;html=1;" vertex="1" parent="1">
          <mxGeometry x="370" y="1191" width="30" height="30" as="geometry" />
        </mxCell>
        <mxCell id="yAxx1janBpm9MGnzS22k-158" value="30" style="rounded=0;whiteSpace=wrap;html=1;" vertex="1" parent="1">
          <mxGeometry x="370" y="1221" width="30" height="30" as="geometry" />
        </mxCell>
        <mxCell id="yAxx1janBpm9MGnzS22k-159" value="30" style="rounded=0;whiteSpace=wrap;html=1;" vertex="1" parent="1">
          <mxGeometry x="370" y="1251" width="30" height="30" as="geometry" />
        </mxCell>
        <mxCell id="yAxx1janBpm9MGnzS22k-160" value="30" style="rounded=0;whiteSpace=wrap;html=1;fillColor=#f8cecc;strokeColor=#b85450;" vertex="1" parent="1">
          <mxGeometry x="370" y="1281" width="30" height="30" as="geometry" />
        </mxCell>
        <mxCell id="yAxx1janBpm9MGnzS22k-161" value="30" style="rounded=0;whiteSpace=wrap;html=1;fillColor=#f8cecc;strokeColor=#b85450;" vertex="1" parent="1">
          <mxGeometry x="370" y="1311" width="30" height="30" as="geometry" />
        </mxCell>
        <mxCell id="yAxx1janBpm9MGnzS22k-162" value="30" style="rounded=0;whiteSpace=wrap;html=1;fillColor=#f8cecc;strokeColor=#b85450;" vertex="1" parent="1">
          <mxGeometry x="370" y="1341" width="30" height="30" as="geometry" />
        </mxCell>
        <mxCell id="yAxx1janBpm9MGnzS22k-163" value="30" style="rounded=0;whiteSpace=wrap;html=1;fillColor=#fff2cc;strokeColor=#d6b656;" vertex="1" parent="1">
          <mxGeometry x="400" y="1161" width="30" height="30" as="geometry" />
        </mxCell>
        <mxCell id="yAxx1janBpm9MGnzS22k-164" value="30" style="rounded=0;whiteSpace=wrap;html=1;" vertex="1" parent="1">
          <mxGeometry x="400" y="1191" width="30" height="30" as="geometry" />
        </mxCell>
        <mxCell id="yAxx1janBpm9MGnzS22k-165" value="30" style="rounded=0;whiteSpace=wrap;html=1;" vertex="1" parent="1">
          <mxGeometry x="400" y="1221" width="30" height="30" as="geometry" />
        </mxCell>
        <mxCell id="yAxx1janBpm9MGnzS22k-166" value="30" style="rounded=0;whiteSpace=wrap;html=1;" vertex="1" parent="1">
          <mxGeometry x="400" y="1251" width="30" height="30" as="geometry" />
        </mxCell>
        <mxCell id="yAxx1janBpm9MGnzS22k-167" value="30" style="rounded=0;whiteSpace=wrap;html=1;fillColor=#f8cecc;strokeColor=#b85450;" vertex="1" parent="1">
          <mxGeometry x="400" y="1281" width="30" height="30" as="geometry" />
        </mxCell>
        <mxCell id="yAxx1janBpm9MGnzS22k-168" value="30" style="rounded=0;whiteSpace=wrap;html=1;fillColor=#f8cecc;strokeColor=#b85450;" vertex="1" parent="1">
          <mxGeometry x="400" y="1311" width="30" height="30" as="geometry" />
        </mxCell>
        <mxCell id="yAxx1janBpm9MGnzS22k-169" value="30" style="rounded=0;whiteSpace=wrap;html=1;fillColor=#f8cecc;strokeColor=#b85450;" vertex="1" parent="1">
          <mxGeometry x="400" y="1341" width="30" height="30" as="geometry" />
        </mxCell>
        <mxCell id="yAxx1janBpm9MGnzS22k-170" value="30" style="rounded=0;whiteSpace=wrap;html=1;" vertex="1" parent="1">
          <mxGeometry x="430" y="1161" width="30" height="30" as="geometry" />
        </mxCell>
        <mxCell id="yAxx1janBpm9MGnzS22k-171" value="30" style="rounded=0;whiteSpace=wrap;html=1;" vertex="1" parent="1">
          <mxGeometry x="430" y="1191" width="30" height="30" as="geometry" />
        </mxCell>
        <mxCell id="yAxx1janBpm9MGnzS22k-172" value="30" style="rounded=0;whiteSpace=wrap;html=1;" vertex="1" parent="1">
          <mxGeometry x="430" y="1221" width="30" height="30" as="geometry" />
        </mxCell>
        <mxCell id="yAxx1janBpm9MGnzS22k-173" value="30" style="rounded=0;whiteSpace=wrap;html=1;" vertex="1" parent="1">
          <mxGeometry x="430" y="1251" width="30" height="30" as="geometry" />
        </mxCell>
        <mxCell id="yAxx1janBpm9MGnzS22k-174" value="30" style="rounded=0;whiteSpace=wrap;html=1;" vertex="1" parent="1">
          <mxGeometry x="430" y="1281" width="30" height="30" as="geometry" />
        </mxCell>
        <mxCell id="yAxx1janBpm9MGnzS22k-175" value="30" style="rounded=0;whiteSpace=wrap;html=1;" vertex="1" parent="1">
          <mxGeometry x="430" y="1311" width="30" height="30" as="geometry" />
        </mxCell>
        <mxCell id="yAxx1janBpm9MGnzS22k-176" value="30" style="rounded=0;whiteSpace=wrap;html=1;" vertex="1" parent="1">
          <mxGeometry x="430" y="1341" width="30" height="30" as="geometry" />
        </mxCell>
        <mxCell id="yAxx1janBpm9MGnzS22k-177" value="30" style="rounded=0;whiteSpace=wrap;html=1;fillColor=#d5e8d4;strokeColor=#82b366;" vertex="1" parent="1">
          <mxGeometry x="260" y="1161" width="30" height="30" as="geometry" />
        </mxCell>
        <mxCell id="yAxx1janBpm9MGnzS22k-178" value="30" style="rounded=0;whiteSpace=wrap;html=1;fillColor=#d5e8d4;strokeColor=#82b366;" vertex="1" parent="1">
          <mxGeometry x="260" y="1191" width="30" height="30" as="geometry" />
        </mxCell>
        <mxCell id="yAxx1janBpm9MGnzS22k-179" value="30" style="rounded=0;whiteSpace=wrap;html=1;fillColor=#d5e8d4;strokeColor=#82b366;" vertex="1" parent="1">
          <mxGeometry x="260" y="1221" width="30" height="30" as="geometry" />
        </mxCell>
        <mxCell id="yAxx1janBpm9MGnzS22k-180" value="30" style="rounded=0;whiteSpace=wrap;html=1;fillColor=#d5e8d4;strokeColor=#82b366;" vertex="1" parent="1">
          <mxGeometry x="260" y="1251" width="30" height="30" as="geometry" />
        </mxCell>
        <mxCell id="yAxx1janBpm9MGnzS22k-181" value="30" style="rounded=0;whiteSpace=wrap;html=1;fillColor=#dae8fc;strokeColor=#6c8ebf;" vertex="1" parent="1">
          <mxGeometry x="260" y="1281" width="30" height="30" as="geometry" />
        </mxCell>
        <mxCell id="yAxx1janBpm9MGnzS22k-182" value="30" style="rounded=0;whiteSpace=wrap;html=1;fillColor=#dae8fc;strokeColor=#6c8ebf;" vertex="1" parent="1">
          <mxGeometry x="260" y="1311" width="30" height="30" as="geometry" />
        </mxCell>
        <mxCell id="yAxx1janBpm9MGnzS22k-183" value="30" style="rounded=0;whiteSpace=wrap;html=1;fillColor=#dae8fc;strokeColor=#6c8ebf;" vertex="1" parent="1">
          <mxGeometry x="260" y="1341" width="30" height="30" as="geometry" />
        </mxCell>
        <mxCell id="yAxx1janBpm9MGnzS22k-184" value="30" style="rounded=0;whiteSpace=wrap;html=1;" vertex="1" parent="1">
          <mxGeometry x="290" y="1161" width="30" height="30" as="geometry" />
        </mxCell>
        <mxCell id="yAxx1janBpm9MGnzS22k-185" value="30" style="rounded=0;whiteSpace=wrap;html=1;" vertex="1" parent="1">
          <mxGeometry x="290" y="1191" width="30" height="30" as="geometry" />
        </mxCell>
        <mxCell id="yAxx1janBpm9MGnzS22k-186" value="30" style="rounded=0;whiteSpace=wrap;html=1;" vertex="1" parent="1">
          <mxGeometry x="290" y="1221" width="30" height="30" as="geometry" />
        </mxCell>
        <mxCell id="yAxx1janBpm9MGnzS22k-187" value="30" style="rounded=0;whiteSpace=wrap;html=1;shadow=0;glass=0;" vertex="1" parent="1">
          <mxGeometry x="290" y="1251" width="30" height="30" as="geometry" />
        </mxCell>
        <mxCell id="yAxx1janBpm9MGnzS22k-188" value="30" style="rounded=0;whiteSpace=wrap;html=1;fillColor=#dae8fc;strokeColor=#6c8ebf;" vertex="1" parent="1">
          <mxGeometry x="290" y="1281" width="30" height="30" as="geometry" />
        </mxCell>
        <mxCell id="yAxx1janBpm9MGnzS22k-189" value="30" style="rounded=0;whiteSpace=wrap;html=1;fillColor=#dae8fc;strokeColor=#6c8ebf;" vertex="1" parent="1">
          <mxGeometry x="290" y="1311" width="30" height="30" as="geometry" />
        </mxCell>
        <mxCell id="yAxx1janBpm9MGnzS22k-190" value="30" style="rounded=0;whiteSpace=wrap;html=1;fillColor=#dae8fc;strokeColor=#6c8ebf;" vertex="1" parent="1">
          <mxGeometry x="290" y="1341" width="30" height="30" as="geometry" />
        </mxCell>
        <mxCell id="yAxx1janBpm9MGnzS22k-191" value="30" style="rounded=0;whiteSpace=wrap;html=1;" vertex="1" parent="1">
          <mxGeometry x="320" y="1161" width="30" height="30" as="geometry" />
        </mxCell>
        <mxCell id="yAxx1janBpm9MGnzS22k-192" value="30" style="rounded=0;whiteSpace=wrap;html=1;" vertex="1" parent="1">
          <mxGeometry x="320" y="1191" width="30" height="30" as="geometry" />
        </mxCell>
        <mxCell id="yAxx1janBpm9MGnzS22k-193" value="30" style="rounded=0;whiteSpace=wrap;html=1;" vertex="1" parent="1">
          <mxGeometry x="320" y="1221" width="30" height="30" as="geometry" />
        </mxCell>
        <mxCell id="yAxx1janBpm9MGnzS22k-194" value="30" style="rounded=0;whiteSpace=wrap;html=1;" vertex="1" parent="1">
          <mxGeometry x="320" y="1251" width="30" height="30" as="geometry" />
        </mxCell>
        <mxCell id="yAxx1janBpm9MGnzS22k-195" value="30" style="rounded=0;whiteSpace=wrap;html=1;fillColor=#dae8fc;strokeColor=#6c8ebf;" vertex="1" parent="1">
          <mxGeometry x="320" y="1281" width="30" height="30" as="geometry" />
        </mxCell>
        <mxCell id="yAxx1janBpm9MGnzS22k-196" value="30" style="rounded=0;whiteSpace=wrap;html=1;fillColor=#dae8fc;strokeColor=#6c8ebf;" vertex="1" parent="1">
          <mxGeometry x="320" y="1311" width="30" height="30" as="geometry" />
        </mxCell>
        <mxCell id="yAxx1janBpm9MGnzS22k-197" value="30" style="rounded=0;whiteSpace=wrap;html=1;fillColor=#dae8fc;strokeColor=#6c8ebf;" vertex="1" parent="1">
          <mxGeometry x="320" y="1341" width="30" height="30" as="geometry" />
        </mxCell>
        <mxCell id="yAxx1janBpm9MGnzS22k-198" value="30" style="rounded=0;whiteSpace=wrap;html=1;fillColor=#d5e8d4;strokeColor=#82b366;" vertex="1" parent="1">
          <mxGeometry x="200" y="1161" width="30" height="30" as="geometry" />
        </mxCell>
        <mxCell id="yAxx1janBpm9MGnzS22k-199" value="30" style="rounded=0;whiteSpace=wrap;html=1;fillColor=#d5e8d4;strokeColor=#82b366;" vertex="1" parent="1">
          <mxGeometry x="200" y="1191" width="30" height="30" as="geometry" />
        </mxCell>
        <mxCell id="yAxx1janBpm9MGnzS22k-200" value="30" style="rounded=0;whiteSpace=wrap;html=1;fillColor=#d5e8d4;strokeColor=#82b366;" vertex="1" parent="1">
          <mxGeometry x="200" y="1221" width="30" height="30" as="geometry" />
        </mxCell>
        <mxCell id="yAxx1janBpm9MGnzS22k-201" value="30" style="rounded=0;whiteSpace=wrap;html=1;fillColor=#d5e8d4;strokeColor=#82b366;" vertex="1" parent="1">
          <mxGeometry x="200" y="1251" width="30" height="30" as="geometry" />
        </mxCell>
        <mxCell id="yAxx1janBpm9MGnzS22k-202" value="30" style="rounded=0;whiteSpace=wrap;html=1;fillColor=#dae8fc;strokeColor=#6c8ebf;" vertex="1" parent="1">
          <mxGeometry x="200" y="1281" width="30" height="30" as="geometry" />
        </mxCell>
        <mxCell id="yAxx1janBpm9MGnzS22k-203" value="30" style="rounded=0;whiteSpace=wrap;html=1;fillColor=#dae8fc;strokeColor=#6c8ebf;" vertex="1" parent="1">
          <mxGeometry x="200" y="1311" width="30" height="30" as="geometry" />
        </mxCell>
        <mxCell id="yAxx1janBpm9MGnzS22k-204" value="30" style="rounded=0;whiteSpace=wrap;html=1;fillColor=#dae8fc;strokeColor=#6c8ebf;" vertex="1" parent="1">
          <mxGeometry x="200" y="1341" width="30" height="30" as="geometry" />
        </mxCell>
        <mxCell id="yAxx1janBpm9MGnzS22k-205" value="30" style="rounded=0;whiteSpace=wrap;html=1;fillColor=#d5e8d4;strokeColor=#82b366;" vertex="1" parent="1">
          <mxGeometry x="230" y="1161" width="30" height="30" as="geometry" />
        </mxCell>
        <mxCell id="yAxx1janBpm9MGnzS22k-206" value="30" style="rounded=0;whiteSpace=wrap;html=1;fillColor=#d5e8d4;strokeColor=#82b366;" vertex="1" parent="1">
          <mxGeometry x="230" y="1191" width="30" height="30" as="geometry" />
        </mxCell>
        <mxCell id="yAxx1janBpm9MGnzS22k-207" value="30" style="rounded=0;whiteSpace=wrap;html=1;fillColor=#d5e8d4;strokeColor=#82b366;" vertex="1" parent="1">
          <mxGeometry x="230" y="1221" width="30" height="30" as="geometry" />
        </mxCell>
        <mxCell id="yAxx1janBpm9MGnzS22k-208" value="30" style="rounded=0;whiteSpace=wrap;html=1;fillColor=#d5e8d4;strokeColor=#82b366;" vertex="1" parent="1">
          <mxGeometry x="230" y="1251" width="30" height="30" as="geometry" />
        </mxCell>
        <mxCell id="yAxx1janBpm9MGnzS22k-209" value="30" style="rounded=0;whiteSpace=wrap;html=1;fillColor=#dae8fc;strokeColor=#6c8ebf;" vertex="1" parent="1">
          <mxGeometry x="230" y="1281" width="30" height="30" as="geometry" />
        </mxCell>
        <mxCell id="yAxx1janBpm9MGnzS22k-210" value="30" style="rounded=0;whiteSpace=wrap;html=1;fillColor=#dae8fc;strokeColor=#6c8ebf;" vertex="1" parent="1">
          <mxGeometry x="230" y="1311" width="30" height="30" as="geometry" />
        </mxCell>
        <mxCell id="yAxx1janBpm9MGnzS22k-211" value="30" style="rounded=0;whiteSpace=wrap;html=1;fillColor=#dae8fc;strokeColor=#6c8ebf;" vertex="1" parent="1">
          <mxGeometry x="230" y="1341" width="30" height="30" as="geometry" />
        </mxCell>
        <mxCell id="yAxx1janBpm9MGnzS22k-212" value="23" style="rounded=0;whiteSpace=wrap;html=1;" vertex="1" parent="1">
          <mxGeometry x="350" y="1191" width="20" height="30" as="geometry" />
        </mxCell>
        <mxCell id="yAxx1janBpm9MGnzS22k-213" value="23" style="rounded=0;whiteSpace=wrap;html=1;" vertex="1" parent="1">
          <mxGeometry x="350" y="1161" width="20" height="30" as="geometry" />
        </mxCell>
        <mxCell id="yAxx1janBpm9MGnzS22k-214" value="23" style="rounded=0;whiteSpace=wrap;html=1;glass=0;" vertex="1" parent="1">
          <mxGeometry x="350" y="1221" width="20" height="30" as="geometry" />
        </mxCell>
        <mxCell id="yAxx1janBpm9MGnzS22k-215" value="23" style="rounded=0;whiteSpace=wrap;html=1;" vertex="1" parent="1">
          <mxGeometry x="350" y="1251" width="20" height="30" as="geometry" />
        </mxCell>
        <mxCell id="yAxx1janBpm9MGnzS22k-216" value="23" style="rounded=0;whiteSpace=wrap;html=1;fillColor=#dae8fc;strokeColor=#6c8ebf;" vertex="1" parent="1">
          <mxGeometry x="350" y="1281" width="20" height="30" as="geometry" />
        </mxCell>
        <mxCell id="yAxx1janBpm9MGnzS22k-217" value="23" style="rounded=0;whiteSpace=wrap;html=1;fillColor=#dae8fc;strokeColor=#6c8ebf;" vertex="1" parent="1">
          <mxGeometry x="350" y="1311" width="20" height="30" as="geometry" />
        </mxCell>
        <mxCell id="yAxx1janBpm9MGnzS22k-218" value="23" style="rounded=0;whiteSpace=wrap;html=1;fillColor=#dae8fc;strokeColor=#6c8ebf;" vertex="1" parent="1">
          <mxGeometry x="350" y="1341" width="20" height="30" as="geometry" />
        </mxCell>
        <mxCell id="yAxx1janBpm9MGnzS22k-219" value="door：75" style="text;html=1;align=center;verticalAlign=middle;resizable=0;points=[];autosize=1;strokeColor=none;fillColor=none;" vertex="1" parent="1">
          <mxGeometry x="590" y="1235" width="70" height="30" as="geometry" />
        </mxCell>
        <mxCell id="yAxx1janBpm9MGnzS22k-220" value="蓝色：MT&lt;div&gt;绿色：XY&lt;/div&gt;&lt;div&gt;红色：XS&lt;/div&gt;" style="text;html=1;align=center;verticalAlign=middle;resizable=0;points=[];autosize=1;strokeColor=none;fillColor=none;" vertex="1" parent="1">
          <mxGeometry x="585" y="1261" width="80" height="60" as="geometry" />
        </mxCell>
        <mxCell id="yAxx1janBpm9MGnzS22k-221" value="V2" style="text;html=1;align=center;verticalAlign=middle;resizable=0;points=[];autosize=1;strokeColor=none;fillColor=none;" vertex="1" parent="1">
          <mxGeometry x="130" y="1251" width="40" height="30" as="geometry" />
        </mxCell>
        <mxCell id="yAxx1janBpm9MGnzS22k-222" value="" style="verticalLabelPosition=bottom;verticalAlign=top;html=1;shape=mxgraph.basic.pie;startAngle=0.24832474668227633;endAngle=0.5;direction=south;" vertex="1" parent="1">
          <mxGeometry x="297" y="1215" width="146" height="132" as="geometry" />
        </mxCell>
        <mxCell id="yAxx1janBpm9MGnzS22k-223" value="卫生间门" style="text;html=1;align=center;verticalAlign=middle;resizable=0;points=[];autosize=1;strokeColor=none;fillColor=none;" vertex="1" parent="1">
          <mxGeometry x="300" y="1281" width="70" height="30" as="geometry" />
        </mxCell>
        <mxCell id="yAxx1janBpm9MGnzS22k-224" value="洗手池" style="text;html=1;align=center;verticalAlign=middle;resizable=0;points=[];autosize=1;strokeColor=none;fillColor=none;" vertex="1" parent="1">
          <mxGeometry x="370" y="1371" width="60" height="30" as="geometry" />
        </mxCell>
        <mxCell id="yAxx1janBpm9MGnzS22k-225" value="" style="verticalLabelPosition=bottom;verticalAlign=top;html=1;shape=mxgraph.basic.pie;startAngle=0.24832474668227633;endAngle=0.5;direction=east;" vertex="1" parent="1">
          <mxGeometry x="224" y="1089" width="132" height="146" as="geometry" />
        </mxCell>
        <mxCell id="yAxx1janBpm9MGnzS22k-226" value="&lt;span style=&quot;color: rgb(0, 0, 0); font-family: Helvetica; font-size: 12px; font-style: normal; font-variant-ligatures: normal; font-variant-caps: normal; font-weight: 400; letter-spacing: normal; orphans: 2; text-align: center; text-indent: 0px; text-transform: none; widows: 2; word-spacing: 0px; -webkit-text-stroke-width: 0px; white-space: nowrap; background-color: rgb(251, 251, 251); text-decoration-thickness: initial; text-decoration-style: initial; text-decoration-color: initial; display: inline !important; float: none;&quot;&gt;淋浴间门&lt;/span&gt;" style="text;whiteSpace=wrap;html=1;" vertex="1" parent="1">
          <mxGeometry x="290" y="1162" width="80" height="40" as="geometry" />
        </mxCell>
        <mxCell id="yAxx1janBpm9MGnzS22k-227" value="&lt;font style=&quot;font-size: 8px;&quot;&gt;放衣服&lt;/font&gt;" style="text;html=1;align=center;verticalAlign=middle;resizable=0;points=[];autosize=1;strokeColor=none;fillColor=none;" vertex="1" parent="1">
          <mxGeometry x="190" y="1131" width="50" height="30" as="geometry" />
        </mxCell>
        <mxCell id="yAxx1janBpm9MGnzS22k-228" value="&lt;font style=&quot;font-size: 8px;&quot;&gt;收纳&lt;/font&gt;" style="text;html=1;align=center;verticalAlign=middle;resizable=0;points=[];autosize=1;strokeColor=none;fillColor=none;" vertex="1" parent="1">
          <mxGeometry x="380" y="1152" width="40" height="30" as="geometry" />
        </mxCell>
        <mxCell id="yAxx1janBpm9MGnzS22k-229" value="" style="rounded=0;whiteSpace=wrap;html=1;" vertex="1" parent="1">
          <mxGeometry x="200" y="1431" width="170" height="210" as="geometry" />
        </mxCell>
        <mxCell id="yAxx1janBpm9MGnzS22k-230" value="" style="rounded=0;whiteSpace=wrap;html=1;" vertex="1" parent="1">
          <mxGeometry x="370" y="1431" width="200" height="210" as="geometry" />
        </mxCell>
        <mxCell id="yAxx1janBpm9MGnzS22k-231" value="1738" style="text;html=1;align=center;verticalAlign=middle;resizable=0;points=[];autosize=1;strokeColor=none;fillColor=none;" vertex="1" parent="1">
          <mxGeometry x="260" y="1401" width="50" height="30" as="geometry" />
        </mxCell>
        <mxCell id="yAxx1janBpm9MGnzS22k-232" value="2159" style="text;html=1;align=center;verticalAlign=middle;resizable=0;points=[];autosize=1;strokeColor=none;fillColor=none;" vertex="1" parent="1">
          <mxGeometry x="160" y="1521" width="50" height="30" as="geometry" />
        </mxCell>
        <mxCell id="yAxx1janBpm9MGnzS22k-233" value="2022" style="text;html=1;align=center;verticalAlign=middle;resizable=0;points=[];autosize=1;strokeColor=none;fillColor=none;" vertex="1" parent="1">
          <mxGeometry x="445" y="1401" width="50" height="30" as="geometry" />
        </mxCell>
        <mxCell id="yAxx1janBpm9MGnzS22k-234" value="户型图" style="text;html=1;align=center;verticalAlign=middle;resizable=0;points=[];autosize=1;strokeColor=none;fillColor=none;" vertex="1" parent="1">
          <mxGeometry x="346" y="1521" width="60" height="30" as="geometry" />
        </mxCell>
      </root>
    </mxGraphModel>
  </diagram>
</mxfile>
